<svg width="157" height="39" viewBox="0 0 157 39" fill="none" xmlns="http://www.w3.org/2000/svg">
<path d="M38.6712 4.09072V6.00345M38.6712 13.6544V15.5671M38.6712 23.218V25.1308M38.6712 32.7817V34.6944M15.7185 21.3053L29.1076 21.3053M15.7185 27.0435H23.3694M5.19847 2.17799C3.61473 2.17799 2.32938 3.46335 2.32938 5.04709L2.32938 12.7643C3.49422 13.435 4.46175 14.4008 5.1345 15.5644C5.80726 16.7281 6.16148 18.0484 6.16148 19.3926C6.16148 20.7367 5.80726 22.0571 5.1345 23.2207C4.46175 24.3843 3.49422 25.3501 2.32938 26.0208L2.32938 33.738C2.32938 35.3218 3.61473 36.6071 5.19847 36.6071L49.1913 36.6071C50.775 36.6071 52.0604 35.3218 52.0604 33.738L52.0604 26.0208C50.8955 25.3501 49.928 24.3843 49.2552 23.2207C48.5825 22.0571 48.2283 20.7367 48.2283 19.3926C48.2283 18.0484 48.5825 16.7281 49.2552 15.5644C49.928 14.4008 50.8955 13.435 52.0604 12.7643L52.0604 5.04709C52.0604 3.46335 50.775 2.17799 49.1913 2.17799L5.19847 2.17799Z" stroke="#339AF0" stroke-width="3" stroke-linecap="round" stroke-linejoin="round"/>
<path d="M65.8145 17.8671C64.8012 18.2005 64.0145 18.7538 63.4545 19.5271C62.9078 20.2871 62.6345 21.2338 62.6345 22.3671C62.6345 22.8738 62.6812 23.2205 62.7745 23.4071C62.8678 23.5938 62.9145 23.7071 62.9145 23.7471C61.4878 23.7471 60.7745 23.1405 60.7745 21.9271C60.7745 21.1005 61.0878 20.2738 61.7145 19.4471C62.3545 18.6071 63.1678 17.9271 64.1545 17.4071C65.1545 16.8738 66.1478 16.6071 67.1345 16.6071C67.6278 16.6071 68.1345 16.7005 68.6545 16.8871L68.1945 27.4271L72.5945 16.8871H75.4745L73.3745 31.6071H70.4945L71.7745 22.6271L68.0145 31.6071H65.2745L65.6745 22.5871L62.3345 31.6071H60.7345L65.8145 17.8671ZM78.2567 36.6071C77.63 36.6071 77.0767 36.4005 76.5967 35.9871C76.13 35.5871 75.8967 35.0738 75.8967 34.4471C75.8967 33.8605 76.0434 33.3805 76.3367 33.0071C76.63 32.6338 77.01 32.3405 77.4767 32.1271C77.9434 31.9138 78.57 31.6871 79.3567 31.4471L79.5567 30.5671C78.8767 31.3405 78.0634 31.7271 77.1167 31.7271C76.4767 31.7271 75.9567 31.5271 75.5567 31.1271C75.17 30.7271 74.9767 30.1271 74.9767 29.3271C74.9767 28.9938 75.03 28.5605 75.1367 28.0271L76.4967 21.6071H79.3767L77.9367 28.4071C77.8967 28.5671 77.8767 28.7338 77.8767 28.9071C77.8767 29.4938 78.0767 29.7871 78.4767 29.7871C78.85 29.7871 79.17 29.6338 79.4367 29.3271C79.7034 29.0071 79.9167 28.5738 80.0767 28.0271L81.4367 21.6071H84.3367L81.8967 33.2071C81.63 34.4871 81.1567 35.3738 80.4767 35.8671C79.81 36.3605 79.07 36.6071 78.2567 36.6071ZM77.7967 34.8271C78.0367 34.8271 78.2634 34.7005 78.4767 34.4471C78.69 34.2071 78.8567 33.8138 78.9767 33.2671L79.2167 32.0871C78.51 32.3271 77.9634 32.6071 77.5767 32.9271C77.19 33.2471 76.9967 33.6605 76.9967 34.1671C76.9967 34.3271 77.0767 34.4738 77.2367 34.6071C77.3967 34.7538 77.5834 34.8271 77.7967 34.8271ZM93.5719 31.9671C92.7319 31.9671 91.9919 31.8205 91.3519 31.5271C90.7119 31.2338 90.2185 30.8271 89.8719 30.3071C89.5252 29.7738 89.3519 29.1605 89.3519 28.4671C89.3519 27.8805 89.4719 27.3471 89.7119 26.8671C89.9652 26.3871 90.2985 26.0071 90.7119 25.7271C91.1385 25.4471 91.6052 25.3071 92.1119 25.3071C92.5785 25.3071 92.9719 25.4271 93.2919 25.6671C93.6119 25.8938 93.8119 26.2138 93.8919 26.6271C93.1985 26.6271 92.6452 26.8138 92.2319 27.1871C91.8185 27.5471 91.6119 28.0405 91.6119 28.6671C91.6119 29.2405 91.7852 29.7005 92.1319 30.0471C92.4785 30.3938 92.9385 30.5671 93.5119 30.5671C94.2185 30.5671 94.7985 30.3338 95.2519 29.8671C95.7185 29.3871 95.9519 28.7871 95.9519 28.0671C95.9519 27.4405 95.7785 26.8471 95.4319 26.2871C95.0852 25.7271 94.5652 25.0471 93.8719 24.2471C93.1519 23.4205 92.6052 22.7138 92.2319 22.1271C91.8719 21.5271 91.6919 20.8738 91.6919 20.1671C91.6919 19.4738 91.8852 18.8538 92.2719 18.3071C92.6585 17.7471 93.1919 17.3071 93.8719 16.9871C94.5519 16.6671 95.3185 16.5071 96.1719 16.5071C97.2519 16.5071 98.1119 16.7605 98.7519 17.2671C99.4052 17.7738 99.7319 18.4538 99.7319 19.3071C99.7319 19.8671 99.5919 20.3205 99.3119 20.6671C99.0319 21.0138 98.6652 21.1871 98.2119 21.1871C97.7052 21.1871 97.2985 20.9805 96.9919 20.5671C97.2452 20.3805 97.4452 20.1338 97.5919 19.8271C97.7385 19.5205 97.8119 19.2005 97.8119 18.8671C97.8119 18.4405 97.6852 18.1005 97.4319 17.8471C97.1785 17.5938 96.8319 17.4671 96.3919 17.4671C95.8585 17.4671 95.4185 17.6605 95.0719 18.0471C94.7385 18.4205 94.5719 18.9005 94.5719 19.4871C94.5719 20.0205 94.7252 20.5205 95.0319 20.9871C95.3385 21.4405 95.8185 22.0271 96.4719 22.7471C97.0052 23.3205 97.4319 23.8138 97.7519 24.2271C98.0852 24.6405 98.3652 25.1205 98.5919 25.6671C98.8319 26.2005 98.9519 26.7805 98.9519 27.4071C98.9519 28.2605 98.7119 29.0338 98.2319 29.7271C97.7652 30.4205 97.1185 30.9671 96.2919 31.3671C95.4785 31.7671 94.5719 31.9671 93.5719 31.9671ZM102.938 31.7271C101.951 31.7271 101.185 31.4738 100.638 30.9671C100.091 30.4471 99.8181 29.6405 99.8181 28.5471C99.8181 27.6271 99.9981 26.6138 100.358 25.5071C100.718 24.4005 101.305 23.4471 102.118 22.6471C102.931 21.8338 103.965 21.4271 105.218 21.4271C106.685 21.4271 107.418 22.0671 107.418 23.3471C107.418 24.0938 107.205 24.7805 106.778 25.4071C106.351 26.0338 105.785 26.5405 105.078 26.9271C104.371 27.3005 103.618 27.5138 102.818 27.5671C102.791 27.9671 102.778 28.2338 102.778 28.3671C102.778 29.0205 102.891 29.4671 103.118 29.7071C103.345 29.9338 103.711 30.0471 104.218 30.0471C104.938 30.0471 105.551 29.8805 106.058 29.5471C106.578 29.2138 107.145 28.7071 107.758 28.0271H108.438C106.958 30.4938 105.125 31.7271 102.938 31.7271ZM102.978 26.6071C103.471 26.5805 103.938 26.4071 104.378 26.0871C104.831 25.7671 105.191 25.3605 105.458 24.8671C105.738 24.3738 105.878 23.8538 105.878 23.3071C105.878 22.7605 105.711 22.4871 105.378 22.4871C104.898 22.4871 104.425 22.9071 103.958 23.7471C103.505 24.5871 103.178 25.5405 102.978 26.6071ZM110.154 31.7271C109.394 31.7271 108.761 31.4671 108.254 30.9471C107.747 30.4271 107.494 29.6138 107.494 28.5071C107.494 27.5205 107.687 26.4871 108.074 25.4071C108.474 24.3138 109.061 23.3938 109.834 22.6471C110.621 21.8871 111.554 21.5071 112.634 21.5071C113.181 21.5071 113.587 21.6005 113.854 21.7871C114.121 21.9738 114.254 22.2205 114.254 22.5271V22.6671L114.474 21.6071H117.354L115.914 28.4071C115.861 28.6071 115.834 28.8205 115.834 29.0471C115.834 29.6205 116.107 29.9071 116.654 29.9071C117.027 29.9071 117.347 29.7338 117.614 29.3871C117.894 29.0405 118.114 28.5871 118.274 28.0271H119.114C118.621 29.4671 118.007 30.4471 117.274 30.9671C116.554 31.4738 115.827 31.7271 115.094 31.7271C114.534 31.7271 114.081 31.5738 113.734 31.2671C113.401 30.9471 113.201 30.4871 113.134 29.8871C112.747 30.4338 112.314 30.8805 111.834 31.2271C111.367 31.5605 110.807 31.7271 110.154 31.7271ZM111.454 29.7871C111.787 29.7871 112.114 29.6338 112.434 29.3271C112.767 29.0071 112.994 28.5738 113.114 28.0271L114.074 23.5071C114.074 23.3338 114.007 23.1671 113.874 23.0071C113.741 22.8338 113.534 22.7471 113.254 22.7471C112.721 22.7471 112.241 23.0605 111.814 23.6871C111.387 24.3005 111.054 25.0471 110.814 25.9271C110.574 26.7938 110.454 27.5605 110.454 28.2271C110.454 28.8938 110.547 29.3205 110.734 29.5071C110.934 29.6938 111.174 29.7871 111.454 29.7871ZM120.261 31.7271C119.621 31.7271 119.101 31.5271 118.701 31.1271C118.315 30.7271 118.121 30.1271 118.121 29.3271C118.121 28.9938 118.175 28.5605 118.281 28.0271L119.481 22.4071H118.821L118.981 21.6071H119.641L120.241 18.8471L123.201 18.4471L122.521 21.6071H123.721L123.561 22.4071H122.361L121.081 28.4071C121.028 28.6071 121.001 28.8205 121.001 29.0471C121.001 29.3138 121.061 29.5071 121.181 29.6271C121.315 29.7338 121.528 29.7871 121.821 29.7871C122.208 29.7871 122.568 29.6271 122.901 29.3071C123.235 28.9738 123.475 28.5471 123.621 28.0271H124.461C123.968 29.4671 123.335 30.4471 122.561 30.9671C121.788 31.4738 121.021 31.7271 120.261 31.7271ZM126.953 20.5271C126.513 20.5271 126.14 20.3738 125.833 20.0671C125.527 19.7605 125.373 19.3871 125.373 18.9471C125.373 18.5071 125.527 18.1338 125.833 17.8271C126.14 17.5071 126.513 17.3471 126.953 17.3471C127.393 17.3471 127.767 17.5071 128.073 17.8271C128.393 18.1338 128.553 18.5071 128.553 18.9471C128.553 19.3871 128.393 19.7605 128.073 20.0671C127.767 20.3738 127.393 20.5271 126.953 20.5271ZM125.593 31.7271C124.953 31.7271 124.433 31.5271 124.033 31.1271C123.647 30.7271 123.453 30.1271 123.453 29.3271C123.453 28.9938 123.507 28.5605 123.613 28.0271L124.973 21.6071H127.853L126.413 28.4071C126.36 28.6071 126.333 28.8205 126.333 29.0471C126.333 29.3138 126.393 29.5071 126.513 29.6271C126.647 29.7338 126.86 29.7871 127.153 29.7871C127.54 29.7871 127.9 29.6271 128.233 29.3071C128.567 28.9738 128.807 28.5471 128.953 28.0271H129.793C129.3 29.4671 128.667 30.4471 127.893 30.9671C127.12 31.4738 126.353 31.7271 125.593 31.7271ZM136.165 31.7271C135.352 31.7271 134.752 31.5138 134.365 31.0871C133.992 30.6471 133.805 30.1071 133.805 29.4671C133.805 29.1871 133.839 28.8738 133.905 28.5271C133.972 28.1671 134.039 27.8205 134.105 27.4871C134.185 27.1538 134.239 26.9405 134.265 26.8471C134.372 26.3805 134.472 25.9205 134.565 25.4671C134.659 25.0138 134.705 24.6471 134.705 24.3671C134.705 23.6871 134.465 23.3471 133.985 23.3471C133.639 23.3471 133.332 23.5205 133.065 23.8671C132.799 24.2005 132.585 24.6405 132.425 25.1871L131.065 31.6071H128.185L130.305 21.6071H133.185L132.965 22.6471C133.632 21.9005 134.412 21.5271 135.305 21.5271C135.985 21.5271 136.525 21.7138 136.925 22.0871C137.325 22.4605 137.525 23.0271 137.525 23.7871C137.525 24.1738 137.479 24.6071 137.385 25.0871C137.292 25.5538 137.159 26.1271 136.985 26.8071C136.879 27.2205 136.779 27.6271 136.685 28.0271C136.605 28.4138 136.565 28.7205 136.565 28.9471C136.565 29.2138 136.625 29.4205 136.745 29.5671C136.865 29.7138 137.072 29.7871 137.365 29.7871C137.765 29.7871 138.085 29.6471 138.325 29.3671C138.565 29.0738 138.805 28.6271 139.045 28.0271H139.885C139.392 29.4938 138.819 30.4805 138.165 30.9871C137.525 31.4805 136.859 31.7271 136.165 31.7271ZM142.583 36.6071C141.943 36.6071 141.41 36.4405 140.983 36.1071C140.556 35.7738 140.343 35.2938 140.343 34.6671C140.343 33.9071 140.65 33.2938 141.263 32.8271C141.876 32.3738 142.656 31.9938 143.603 31.6871L143.843 30.6271C143.163 31.3605 142.363 31.7271 141.443 31.7271C140.683 31.7271 140.05 31.4671 139.543 30.9471C139.036 30.4271 138.783 29.6138 138.783 28.5071C138.783 27.5205 138.976 26.4871 139.363 25.4071C139.763 24.3138 140.35 23.3938 141.123 22.6471C141.91 21.8871 142.843 21.5071 143.923 21.5071C144.47 21.5071 144.876 21.6005 145.143 21.7871C145.41 21.9738 145.543 22.2205 145.543 22.5271V22.6471L145.763 21.6071H148.643L146.663 30.8871C147.303 30.6738 147.816 30.3538 148.203 29.9271C148.59 29.5005 148.916 28.8671 149.183 28.0271H150.023C149.663 29.2138 149.176 30.0871 148.563 30.6471C147.95 31.1938 147.256 31.5671 146.483 31.7671L146.183 33.2071C145.916 34.5005 145.456 35.3871 144.803 35.8671C144.15 36.3605 143.41 36.6071 142.583 36.6071ZM142.743 29.7871C143.05 29.7871 143.363 29.6471 143.683 29.3671C144.003 29.0871 144.223 28.7071 144.343 28.2271L145.363 23.4871C145.363 23.3271 145.296 23.1671 145.163 23.0071C145.03 22.8338 144.823 22.7471 144.543 22.7471C144.01 22.7471 143.53 23.0605 143.103 23.6871C142.676 24.3005 142.343 25.0471 142.103 25.9271C141.863 26.7938 141.743 27.5605 141.743 28.2271C141.743 28.8938 141.836 29.3205 142.023 29.5071C142.223 29.6938 142.463 29.7871 142.743 29.7871ZM142.123 35.0471C142.35 35.0471 142.57 34.8938 142.783 34.5871C142.996 34.2805 143.163 33.8405 143.283 33.2671L143.403 32.6871C142.096 33.1671 141.443 33.7338 141.443 34.3871C141.443 34.5605 141.503 34.7138 141.623 34.8471C141.743 34.9805 141.91 35.0471 142.123 35.0471ZM151.46 31.7271C150.82 31.7271 150.28 31.6071 149.84 31.3671C149.4 31.1138 149.073 30.7938 148.86 30.4071C148.646 30.0071 148.54 29.5938 148.54 29.1671C148.54 28.7271 148.646 28.3471 148.86 28.0271C149.06 27.6938 149.306 27.4538 149.6 27.3071C150.12 26.3738 150.573 25.4338 150.96 24.4871C151.346 23.5271 151.713 22.4938 152.06 21.3871L155.02 20.9871C155.086 22.6938 155.2 24.5405 155.36 26.5271C155.426 27.3271 155.46 27.9071 155.46 28.2671C155.46 29.0805 155.253 29.7471 154.84 30.2671C154.426 30.7871 153.913 31.1605 153.3 31.3871C152.7 31.6138 152.086 31.7271 151.46 31.7271ZM150.82 30.1471C151.313 30.1471 151.726 30.0005 152.06 29.7071C152.393 29.4138 152.56 28.9405 152.56 28.2871C152.56 27.8871 152.52 27.3271 152.44 26.6071C152.306 25.0871 152.22 24.0671 152.18 23.5471C151.86 24.6005 151.32 25.8605 150.56 27.3271C150.866 27.4871 151.02 27.7205 151.02 28.0271C151.02 28.2805 150.933 28.5071 150.76 28.7071C150.6 28.9071 150.393 29.0071 150.14 29.0071C149.86 29.0071 149.68 28.9205 149.6 28.7471C149.6 29.2271 149.693 29.5805 149.88 29.8071C150.08 30.0338 150.393 30.1471 150.82 30.1471Z" fill="black"/>
</svg>
