<svg width="157" height="39" viewBox="0 0 157 39" fill="none" xmlns="http://www.w3.org/2000/svg">
<path d="M38.6713 4.09072V6.00345M38.6713 13.6544V15.5671M38.6713 23.218V25.1308M38.6713 32.7817V34.6944M15.7185 21.3053L29.1076 21.3053M15.7185 27.0435H23.3694M5.19849 2.17799C3.61475 2.17799 2.32939 3.46335 2.32939 5.04709L2.32939 12.7643C3.49423 13.435 4.46177 14.4008 5.13452 15.5644C5.80727 16.7281 6.16149 18.0484 6.16149 19.3926C6.16149 20.7367 5.80727 22.0571 5.13452 23.2207C4.46177 24.3843 3.49423 25.3501 2.32939 26.0208L2.32939 33.738C2.32939 35.3218 3.61475 36.6071 5.19849 36.6071L49.1913 36.6071C50.775 36.6071 52.0604 35.3218 52.0604 33.738L52.0604 26.0208C50.8955 25.3501 49.928 24.3843 49.2552 23.2207C48.5825 22.0571 48.2283 20.7367 48.2283 19.3926C48.2283 18.0484 48.5825 16.7281 49.2552 15.5644C49.928 14.4008 50.8955 13.435 52.0604 12.7643L52.0604 5.04709C52.0604 3.46335 50.775 2.17799 49.1913 2.17799L5.19849 2.17799Z" stroke="#339AF0" stroke-width="3" stroke-linecap="round" stroke-linejoin="round"/>
<path d="M65.7912 13.1526C64.7778 13.4859 63.9912 14.0392 63.4312 14.8126C62.8845 15.5726 62.6112 16.5192 62.6112 17.6526C62.6112 18.1592 62.6578 18.5059 62.7512 18.6926C62.8445 18.8792 62.8912 18.9926 62.8912 19.0326C61.4645 19.0326 60.7512 18.4259 60.7512 17.2126C60.7512 16.3859 61.0645 15.5592 61.6912 14.7326C62.3312 13.8926 63.1445 13.2126 64.1312 12.6926C65.1312 12.1592 66.1245 11.8926 67.1112 11.8926C67.6045 11.8926 68.1112 11.9859 68.6312 12.1726L68.1712 22.7126L72.5712 12.1726H75.4512L73.3512 26.8926H70.4712L71.7512 17.9126L67.9912 26.8926H65.2512L65.6512 17.8726L62.3112 26.8926H60.7112L65.7912 13.1526ZM78.2333 31.8926C77.6067 31.8926 77.0533 31.6859 76.5733 31.2726C76.1067 30.8726 75.8733 30.3592 75.8733 29.7326C75.8733 29.1459 76.02 28.6659 76.3133 28.2926C76.6067 27.9192 76.9867 27.6259 77.4533 27.4126C77.92 27.1992 78.5467 26.9726 79.3333 26.7326L79.5333 25.8526C78.8533 26.6259 78.04 27.0126 77.0933 27.0126C76.4533 27.0126 75.9333 26.8126 75.5333 26.4126C75.1467 26.0126 74.9533 25.4126 74.9533 24.6126C74.9533 24.2792 75.0067 23.8459 75.1133 23.3126L76.4733 16.8926H79.3533L77.9133 23.6926C77.8733 23.8526 77.8533 24.0192 77.8533 24.1926C77.8533 24.7792 78.0533 25.0726 78.4533 25.0726C78.8267 25.0726 79.1467 24.9192 79.4133 24.6126C79.68 24.2926 79.8933 23.8592 80.0533 23.3126L81.4133 16.8926H84.3133L81.8733 28.4926C81.6067 29.7726 81.1333 30.6592 80.4533 31.1526C79.7867 31.6459 79.0467 31.8926 78.2333 31.8926ZM77.7733 30.1126C78.0133 30.1126 78.24 29.9859 78.4533 29.7326C78.6667 29.4926 78.8333 29.0992 78.9533 28.5526L79.1933 27.3726C78.4867 27.6126 77.94 27.8926 77.5533 28.2126C77.1667 28.5326 76.9733 28.9459 76.9733 29.4526C76.9733 29.6126 77.0533 29.7592 77.2133 29.8926C77.3733 30.0392 77.56 30.1126 77.7733 30.1126ZM93.5485 27.2526C92.7085 27.2526 91.9685 27.1059 91.3285 26.8126C90.6885 26.5192 90.1952 26.1126 89.8485 25.5926C89.5018 25.0592 89.3285 24.4459 89.3285 23.7526C89.3285 23.1659 89.4485 22.6326 89.6885 22.1526C89.9418 21.6726 90.2752 21.2926 90.6885 21.0126C91.1152 20.7326 91.5818 20.5926 92.0885 20.5926C92.5552 20.5926 92.9485 20.7126 93.2685 20.9526C93.5885 21.1792 93.7885 21.4992 93.8685 21.9126C93.1752 21.9126 92.6218 22.0992 92.2085 22.4726C91.7952 22.8326 91.5885 23.3259 91.5885 23.9526C91.5885 24.5259 91.7618 24.9859 92.1085 25.3326C92.4552 25.6792 92.9152 25.8526 93.4885 25.8526C94.1952 25.8526 94.7752 25.6192 95.2285 25.1526C95.6952 24.6726 95.9285 24.0726 95.9285 23.3526C95.9285 22.7259 95.7552 22.1326 95.4085 21.5726C95.0618 21.0126 94.5418 20.3326 93.8485 19.5326C93.1285 18.7059 92.5818 17.9992 92.2085 17.4126C91.8485 16.8126 91.6685 16.1592 91.6685 15.4526C91.6685 14.7592 91.8618 14.1392 92.2485 13.5926C92.6352 13.0326 93.1685 12.5926 93.8485 12.2726C94.5285 11.9526 95.2952 11.7926 96.1485 11.7926C97.2285 11.7926 98.0885 12.0459 98.7285 12.5526C99.3818 13.0592 99.7085 13.7392 99.7085 14.5926C99.7085 15.1526 99.5685 15.6059 99.2885 15.9526C99.0085 16.2992 98.6418 16.4726 98.1885 16.4726C97.6818 16.4726 97.2752 16.2659 96.9685 15.8526C97.2218 15.6659 97.4218 15.4192 97.5685 15.1126C97.7152 14.8059 97.7885 14.4859 97.7885 14.1526C97.7885 13.7259 97.6618 13.3859 97.4085 13.1326C97.1552 12.8792 96.8085 12.7526 96.3685 12.7526C95.8352 12.7526 95.3952 12.9459 95.0485 13.3326C94.7152 13.7059 94.5485 14.1859 94.5485 14.7726C94.5485 15.3059 94.7018 15.8059 95.0085 16.2726C95.3152 16.7259 95.7952 17.3126 96.4485 18.0326C96.9818 18.6059 97.4085 19.0992 97.7285 19.5126C98.0618 19.9259 98.3418 20.4059 98.5685 20.9526C98.8085 21.4859 98.9285 22.0659 98.9285 22.6926C98.9285 23.5459 98.6885 24.3192 98.2085 25.0126C97.7418 25.7059 97.0952 26.2526 96.2685 26.6526C95.4552 27.0526 94.5485 27.2526 93.5485 27.2526ZM102.915 27.0126C101.928 27.0126 101.161 26.7592 100.615 26.2526C100.068 25.7326 99.7947 24.9259 99.7947 23.8326C99.7947 22.9126 99.9747 21.8992 100.335 20.7926C100.695 19.6859 101.281 18.7326 102.095 17.9326C102.908 17.1192 103.941 16.7126 105.195 16.7126C106.661 16.7126 107.395 17.3526 107.395 18.6326C107.395 19.3792 107.181 20.0659 106.755 20.6926C106.328 21.3192 105.761 21.8259 105.055 22.2126C104.348 22.5859 103.595 22.7992 102.795 22.8526C102.768 23.2526 102.755 23.5192 102.755 23.6526C102.755 24.3059 102.868 24.7526 103.095 24.9926C103.321 25.2192 103.688 25.3326 104.195 25.3326C104.915 25.3326 105.528 25.1659 106.035 24.8326C106.555 24.4992 107.121 23.9926 107.735 23.3126H108.415C106.935 25.7792 105.101 27.0126 102.915 27.0126ZM102.955 21.8926C103.448 21.8659 103.915 21.6926 104.355 21.3726C104.808 21.0526 105.168 20.6459 105.435 20.1526C105.715 19.6592 105.855 19.1392 105.855 18.5926C105.855 18.0459 105.688 17.7726 105.355 17.7726C104.875 17.7726 104.401 18.1926 103.935 19.0326C103.481 19.8726 103.155 20.8259 102.955 21.8926ZM110.131 27.0126C109.371 27.0126 108.737 26.7526 108.231 26.2326C107.724 25.7126 107.471 24.8992 107.471 23.7926C107.471 22.8059 107.664 21.7726 108.051 20.6926C108.451 19.5992 109.037 18.6792 109.811 17.9326C110.597 17.1726 111.531 16.7926 112.611 16.7926C113.157 16.7926 113.564 16.8859 113.831 17.0726C114.097 17.2592 114.231 17.5059 114.231 17.8126V17.9526L114.451 16.8926H117.331L115.891 23.6926C115.837 23.8926 115.811 24.1059 115.811 24.3326C115.811 24.9059 116.084 25.1926 116.631 25.1926C117.004 25.1926 117.324 25.0192 117.591 24.6726C117.871 24.3259 118.091 23.8726 118.251 23.3126H119.091C118.597 24.7526 117.984 25.7326 117.251 26.2526C116.531 26.7592 115.804 27.0126 115.071 27.0126C114.511 27.0126 114.057 26.8592 113.711 26.5526C113.377 26.2326 113.177 25.7726 113.111 25.1726C112.724 25.7192 112.291 26.1659 111.811 26.5126C111.344 26.8459 110.784 27.0126 110.131 27.0126ZM111.431 25.0726C111.764 25.0726 112.091 24.9192 112.411 24.6126C112.744 24.2926 112.971 23.8592 113.091 23.3126L114.051 18.7926C114.051 18.6192 113.984 18.4526 113.851 18.2926C113.717 18.1192 113.511 18.0326 113.231 18.0326C112.697 18.0326 112.217 18.3459 111.791 18.9726C111.364 19.5859 111.031 20.3326 110.791 21.2126C110.551 22.0792 110.431 22.8459 110.431 23.5126C110.431 24.1792 110.524 24.6059 110.711 24.7926C110.911 24.9792 111.151 25.0726 111.431 25.0726ZM120.238 27.0126C119.598 27.0126 119.078 26.8126 118.678 26.4126C118.291 26.0126 118.098 25.4126 118.098 24.6126C118.098 24.2792 118.151 23.8459 118.258 23.3126L119.458 17.6926H118.798L118.958 16.8926H119.618L120.218 14.1326L123.178 13.7326L122.498 16.8926H123.698L123.538 17.6926H122.338L121.058 23.6926C121.005 23.8926 120.978 24.1059 120.978 24.3326C120.978 24.5992 121.038 24.7926 121.158 24.9126C121.291 25.0192 121.505 25.0726 121.798 25.0726C122.185 25.0726 122.545 24.9126 122.878 24.5926C123.211 24.2592 123.451 23.8326 123.598 23.3126H124.438C123.945 24.7526 123.311 25.7326 122.538 26.2526C121.765 26.7592 120.998 27.0126 120.238 27.0126ZM126.93 15.8126C126.49 15.8126 126.117 15.6592 125.81 15.3526C125.503 15.0459 125.35 14.6726 125.35 14.2326C125.35 13.7926 125.503 13.4192 125.81 13.1126C126.117 12.7926 126.49 12.6326 126.93 12.6326C127.37 12.6326 127.743 12.7926 128.05 13.1126C128.37 13.4192 128.53 13.7926 128.53 14.2326C128.53 14.6726 128.37 15.0459 128.05 15.3526C127.743 15.6592 127.37 15.8126 126.93 15.8126ZM125.57 27.0126C124.93 27.0126 124.41 26.8126 124.01 26.4126C123.623 26.0126 123.43 25.4126 123.43 24.6126C123.43 24.2792 123.483 23.8459 123.59 23.3126L124.95 16.8926H127.83L126.39 23.6926C126.337 23.8926 126.31 24.1059 126.31 24.3326C126.31 24.5992 126.37 24.7926 126.49 24.9126C126.623 25.0192 126.837 25.0726 127.13 25.0726C127.517 25.0726 127.877 24.9126 128.21 24.5926C128.543 24.2592 128.783 23.8326 128.93 23.3126H129.77C129.277 24.7526 128.643 25.7326 127.87 26.2526C127.097 26.7592 126.33 27.0126 125.57 27.0126ZM136.142 27.0126C135.329 27.0126 134.729 26.7992 134.342 26.3726C133.969 25.9326 133.782 25.3926 133.782 24.7526C133.782 24.4726 133.815 24.1592 133.882 23.8126C133.949 23.4526 134.015 23.1059 134.082 22.7726C134.162 22.4392 134.215 22.2259 134.242 22.1326C134.349 21.6659 134.449 21.2059 134.542 20.7526C134.635 20.2992 134.682 19.9326 134.682 19.6526C134.682 18.9726 134.442 18.6326 133.962 18.6326C133.615 18.6326 133.309 18.8059 133.042 19.1526C132.775 19.4859 132.562 19.9259 132.402 20.4726L131.042 26.8926H128.162L130.282 16.8926H133.162L132.942 17.9326C133.609 17.1859 134.389 16.8126 135.282 16.8126C135.962 16.8126 136.502 16.9992 136.902 17.3726C137.302 17.7459 137.502 18.3126 137.502 19.0726C137.502 19.4592 137.455 19.8926 137.362 20.3726C137.269 20.8392 137.135 21.4126 136.962 22.0926C136.855 22.5059 136.755 22.9126 136.662 23.3126C136.582 23.6992 136.542 24.0059 136.542 24.2326C136.542 24.4992 136.602 24.7059 136.722 24.8526C136.842 24.9992 137.049 25.0726 137.342 25.0726C137.742 25.0726 138.062 24.9326 138.302 24.6526C138.542 24.3592 138.782 23.9126 139.022 23.3126H139.862C139.369 24.7792 138.795 25.7659 138.142 26.2726C137.502 26.7659 136.835 27.0126 136.142 27.0126ZM142.56 31.8926C141.92 31.8926 141.386 31.7259 140.96 31.3926C140.533 31.0592 140.32 30.5792 140.32 29.9526C140.32 29.1926 140.626 28.5792 141.24 28.1126C141.853 27.6592 142.633 27.2792 143.58 26.9726L143.82 25.9126C143.14 26.6459 142.34 27.0126 141.42 27.0126C140.66 27.0126 140.026 26.7526 139.52 26.2326C139.013 25.7126 138.76 24.8992 138.76 23.7926C138.76 22.8059 138.953 21.7726 139.34 20.6926C139.74 19.5992 140.326 18.6792 141.1 17.9326C141.886 17.1726 142.82 16.7926 143.9 16.7926C144.446 16.7926 144.853 16.8859 145.12 17.0726C145.386 17.2592 145.52 17.5059 145.52 17.8126V17.9326L145.74 16.8926H148.62L146.64 26.1726C147.28 25.9592 147.793 25.6392 148.18 25.2126C148.566 24.7859 148.893 24.1526 149.16 23.3126H150C149.64 24.4992 149.153 25.3726 148.54 25.9326C147.926 26.4792 147.233 26.8526 146.46 27.0526L146.16 28.4926C145.893 29.7859 145.433 30.6726 144.78 31.1526C144.126 31.6459 143.386 31.8926 142.56 31.8926ZM142.72 25.0726C143.026 25.0726 143.34 24.9326 143.66 24.6526C143.98 24.3726 144.2 23.9926 144.32 23.5126L145.34 18.7726C145.34 18.6126 145.273 18.4526 145.14 18.2926C145.006 18.1192 144.8 18.0326 144.52 18.0326C143.986 18.0326 143.506 18.3459 143.08 18.9726C142.653 19.5859 142.32 20.3326 142.08 21.2126C141.84 22.0792 141.72 22.8459 141.72 23.5126C141.72 24.1792 141.813 24.6059 142 24.7926C142.2 24.9792 142.44 25.0726 142.72 25.0726ZM142.1 30.3326C142.326 30.3326 142.546 30.1792 142.76 29.8726C142.973 29.5659 143.14 29.1259 143.26 28.5526L143.38 27.9726C142.073 28.4526 141.42 29.0192 141.42 29.6726C141.42 29.8459 141.48 29.9992 141.6 30.1326C141.72 30.2659 141.886 30.3326 142.1 30.3326ZM151.436 27.0126C150.796 27.0126 150.256 26.8926 149.816 26.6526C149.376 26.3992 149.05 26.0792 148.836 25.6926C148.623 25.2926 148.516 24.8792 148.516 24.4526C148.516 24.0126 148.623 23.6326 148.836 23.3126C149.036 22.9792 149.283 22.7392 149.576 22.5926C150.096 21.6592 150.55 20.7192 150.936 19.7726C151.323 18.8126 151.69 17.7792 152.036 16.6726L154.996 16.2726C155.063 17.9792 155.176 19.8259 155.336 21.8126C155.403 22.6126 155.436 23.1926 155.436 23.5526C155.436 24.3659 155.23 25.0326 154.816 25.5526C154.403 26.0726 153.89 26.4459 153.276 26.6726C152.676 26.8992 152.063 27.0126 151.436 27.0126ZM150.796 25.4326C151.29 25.4326 151.703 25.2859 152.036 24.9926C152.37 24.6992 152.536 24.2259 152.536 23.5726C152.536 23.1726 152.496 22.6126 152.416 21.8926C152.283 20.3726 152.196 19.3526 152.156 18.8326C151.836 19.8859 151.296 21.1459 150.536 22.6126C150.843 22.7726 150.996 23.0059 150.996 23.3126C150.996 23.5659 150.91 23.7926 150.736 23.9926C150.576 24.1926 150.37 24.2926 150.116 24.2926C149.836 24.2926 149.656 24.2059 149.576 24.0326C149.576 24.5126 149.67 24.8659 149.856 25.0926C150.056 25.3192 150.37 25.4326 150.796 25.4326Z" fill="url(#paint0_linear_2_10)"/>
<defs>
<linearGradient id="paint0_linear_2_10" x1="107.871" y1="6.89256" x2="107.871" y2="31.8926" gradientUnits="userSpaceOnUse">
<stop stop-color="#5E25D7"/>
<stop offset="1" stop-color="#339AF0"/>
</linearGradient>
</defs>
</svg>
